<svg id="visual" viewBox="0 0 900 600" width="900" height="600" xmlns="http://www.w3.org/2000/svg" xmlns:xlink="http://www.w3.org/1999/xlink" version="1.1"><rect x="0" y="0" width="900" height="600" fill="#cdd9e1"></rect><defs><linearGradient id="grad1_0" x1="33.3%" y1="0%" x2="100%" y2="100%"><stop offset="20%" stop-color="#84acc5" stop-opacity="1"></stop><stop offset="80%" stop-color="#84acc5" stop-opacity="1"></stop></linearGradient></defs><defs><linearGradient id="grad1_1" x1="33.3%" y1="0%" x2="100%" y2="100%"><stop offset="20%" stop-color="#84acc5" stop-opacity="1"></stop><stop offset="80%" stop-color="#8fb2c9" stop-opacity="1"></stop></linearGradient></defs><defs><linearGradient id="grad1_2" x1="33.3%" y1="0%" x2="100%" y2="100%"><stop offset="20%" stop-color="#99b9cd" stop-opacity="1"></stop><stop offset="80%" stop-color="#8fb2c9" stop-opacity="1"></stop></linearGradient></defs><defs><linearGradient id="grad1_3" x1="33.3%" y1="0%" x2="100%" y2="100%"><stop offset="20%" stop-color="#99b9cd" stop-opacity="1"></stop><stop offset="80%" stop-color="#a4bfd1" stop-opacity="1"></stop></linearGradient></defs><defs><linearGradient id="grad1_4" x1="33.3%" y1="0%" x2="100%" y2="100%"><stop offset="20%" stop-color="#aec6d5" stop-opacity="1"></stop><stop offset="80%" stop-color="#a4bfd1" stop-opacity="1"></stop></linearGradient></defs><defs><linearGradient id="grad1_5" x1="33.3%" y1="0%" x2="100%" y2="100%"><stop offset="20%" stop-color="#aec6d5" stop-opacity="1"></stop><stop offset="80%" stop-color="#b8ccd9" stop-opacity="1"></stop></linearGradient></defs><defs><linearGradient id="grad1_6" x1="33.3%" y1="0%" x2="100%" y2="100%"><stop offset="20%" stop-color="#c3d2dd" stop-opacity="1"></stop><stop offset="80%" stop-color="#b8ccd9" stop-opacity="1"></stop></linearGradient></defs><defs><linearGradient id="grad1_7" x1="33.3%" y1="0%" x2="100%" y2="100%"><stop offset="20%" stop-color="#c3d2dd" stop-opacity="1"></stop><stop offset="80%" stop-color="#cdd9e1" stop-opacity="1"></stop></linearGradient></defs><defs><linearGradient id="grad2_0" x1="0%" y1="0%" x2="66.7%" y2="100%"><stop offset="20%" stop-color="#84acc5" stop-opacity="1"></stop><stop offset="80%" stop-color="#84acc5" stop-opacity="1"></stop></linearGradient></defs><defs><linearGradient id="grad2_1" x1="0%" y1="0%" x2="66.7%" y2="100%"><stop offset="20%" stop-color="#8fb2c9" stop-opacity="1"></stop><stop offset="80%" stop-color="#84acc5" stop-opacity="1"></stop></linearGradient></defs><defs><linearGradient id="grad2_2" x1="0%" y1="0%" x2="66.7%" y2="100%"><stop offset="20%" stop-color="#8fb2c9" stop-opacity="1"></stop><stop offset="80%" stop-color="#99b9cd" stop-opacity="1"></stop></linearGradient></defs><defs><linearGradient id="grad2_3" x1="0%" y1="0%" x2="66.7%" y2="100%"><stop offset="20%" stop-color="#a4bfd1" stop-opacity="1"></stop><stop offset="80%" stop-color="#99b9cd" stop-opacity="1"></stop></linearGradient></defs><defs><linearGradient id="grad2_4" x1="0%" y1="0%" x2="66.7%" y2="100%"><stop offset="20%" stop-color="#a4bfd1" stop-opacity="1"></stop><stop offset="80%" stop-color="#aec6d5" stop-opacity="1"></stop></linearGradient></defs><defs><linearGradient id="grad2_5" x1="0%" y1="0%" x2="66.7%" y2="100%"><stop offset="20%" stop-color="#b8ccd9" stop-opacity="1"></stop><stop offset="80%" stop-color="#aec6d5" stop-opacity="1"></stop></linearGradient></defs><defs><linearGradient id="grad2_6" x1="0%" y1="0%" x2="66.7%" y2="100%"><stop offset="20%" stop-color="#b8ccd9" stop-opacity="1"></stop><stop offset="80%" stop-color="#c3d2dd" stop-opacity="1"></stop></linearGradient></defs><defs><linearGradient id="grad2_7" x1="0%" y1="0%" x2="66.7%" y2="100%"><stop offset="20%" stop-color="#cdd9e1" stop-opacity="1"></stop><stop offset="80%" stop-color="#c3d2dd" stop-opacity="1"></stop></linearGradient></defs><g transform="translate(900, 0)"><path d="M0 513.8C-29.4 485.9 -58.7 458 -86.8 436.4C-114.9 414.9 -141.8 399.7 -154.2 372.3C-166.7 345 -164.8 305.4 -210 314.3C-255.2 323.2 -347.6 380.4 -363.3 363.3C-379 346.2 -318.1 254.8 -315.1 210.6C-312.1 166.3 -367 169.3 -363.1 150.4C-359.2 131.5 -296.6 90.7 -311.9 62C-327.2 33.3 -420.5 16.7 -513.8 0L0 0Z" fill="#c8d6df"></path><path d="M0 449.6C-25.7 425.2 -51.4 400.8 -76 381.9C-100.5 363 -124 349.7 -134.9 325.8C-145.9 301.8 -144.2 267.3 -183.8 275C-223.3 282.8 -304.1 332.8 -317.9 317.9C-331.7 302.9 -278.4 222.9 -275.7 184.2C-273.1 145.5 -321.1 148.1 -317.7 131.6C-314.3 115.1 -259.5 79.4 -272.9 54.3C-286.3 29.2 -367.9 14.6 -449.6 0L0 0Z" fill="#becfdb"></path><path d="M0 385.3C-22 364.4 -44 343.5 -65.1 327.3C-86.2 311.2 -106.3 299.8 -115.7 279.2C-125 258.7 -123.6 229.1 -157.5 235.7C-191.4 242.4 -260.7 285.3 -272.5 272.5C-284.3 259.7 -238.6 191.1 -236.3 157.9C-234.1 124.7 -275.2 127 -272.3 112.8C-269.4 98.6 -222.4 68.1 -233.9 46.5C-245.4 25 -315.4 12.5 -385.3 0L0 0Z" fill="#b3c9d7"></path><path d="M0 321.1C-18.3 303.7 -36.7 286.3 -54.3 272.8C-71.8 259.3 -88.6 249.8 -96.4 232.7C-104.2 215.6 -103 190.9 -131.3 196.4C-159.5 202 -217.2 237.7 -227.1 227.1C-236.9 216.4 -198.8 159.2 -197 131.6C-195.1 104 -229.4 105.8 -226.9 94C-224.5 82.2 -185.4 56.7 -194.9 38.8C-204.5 20.8 -262.8 10.4 -321.1 0L0 0Z" fill="#a9c2d3"></path><path d="M0 256.9C-14.7 242.9 -29.4 229 -43.4 218.2C-57.5 207.4 -70.9 199.8 -77.1 186.2C-83.3 172.5 -82.4 152.7 -105 157.1C-127.6 161.6 -173.8 190.2 -181.7 181.7C-189.5 173.1 -159.1 127.4 -157.6 105.3C-156.1 83.2 -183.5 84.6 -181.5 75.2C-179.6 65.7 -148.3 45.4 -155.9 31C-163.6 16.7 -210.3 8.3 -256.9 0L0 0Z" fill="#9ebccf"></path><path d="M0 192.7C-11 182.2 -22 171.8 -32.6 163.7C-43.1 155.6 -53.2 149.9 -57.8 139.6C-62.5 129.4 -61.8 114.5 -78.8 117.9C-95.7 121.2 -130.3 142.6 -136.2 136.2C-142.1 129.8 -119.3 95.5 -118.2 79C-117 62.4 -137.6 63.5 -136.2 56.4C-134.7 49.3 -111.2 34 -117 23.3C-122.7 12.5 -157.7 6.2 -192.7 0L0 0Z" fill="#94b6cb"></path><path d="M0 128.4C-7.3 121.5 -14.7 114.5 -21.7 109.1C-28.7 103.7 -35.4 99.9 -38.6 93.1C-41.7 86.2 -41.2 76.4 -52.5 78.6C-63.8 80.8 -86.9 95.1 -90.8 90.8C-94.8 86.6 -79.5 63.7 -78.8 52.6C-78 41.6 -91.7 42.3 -90.8 37.6C-89.8 32.9 -74.1 22.7 -78 15.5C-81.8 8.3 -105.1 4.2 -128.4 0L0 0Z" fill="#89afc7"></path><path d="M0 64.2C-3.7 60.7 -7.3 57.3 -10.9 54.6C-14.4 51.9 -17.7 50 -19.3 46.5C-20.8 43.1 -20.6 38.2 -26.3 39.3C-31.9 40.4 -43.4 47.5 -45.4 45.4C-47.4 43.3 -39.8 31.8 -39.4 26.3C-39 20.8 -45.9 21.2 -45.4 18.8C-44.9 16.4 -37.1 11.3 -39 7.8C-40.9 4.2 -52.6 2.1 -64.2 0L0 0Z" fill="#84acc5"></path></g><g transform="translate(0, 600)"><path d="M0 -513.8C26 -454 52.1 -394.3 70.8 -356C89.6 -317.8 101.1 -301 127.1 -306.7C153 -312.5 193.6 -340.7 239.5 -358.4C285.3 -376 336.6 -383.1 363.3 -363.3C390 -343.5 392.2 -296.7 379.2 -253.3C366.1 -210 337.8 -170 351.1 -145.4C364.3 -120.9 419.1 -111.8 453.1 -90.1C487.2 -68.5 500.5 -34.2 513.8 0L0 0Z" fill="#c8d6df"></path><path d="M0 -449.6C22.8 -397.3 45.6 -345 62 -311.5C78.4 -278 88.4 -263.4 111.2 -268.4C133.9 -273.4 169.4 -298.1 209.5 -313.6C249.7 -329 294.5 -335.2 317.9 -317.9C341.3 -300.5 343.2 -259.6 331.8 -221.7C320.3 -183.7 295.6 -148.7 307.2 -127.2C318.8 -105.8 366.7 -97.8 396.5 -78.9C426.3 -59.9 437.9 -30 449.6 0L0 0Z" fill="#becfdb"></path><path d="M0 -385.3C19.5 -340.5 39 -295.7 53.1 -267C67.2 -238.3 75.8 -225.7 95.3 -230C114.8 -234.3 145.2 -255.5 179.6 -268.8C214 -282 252.4 -287.4 272.5 -272.5C292.5 -257.6 294.1 -222.5 284.4 -190C274.6 -157.5 253.4 -127.5 263.3 -109.1C273.2 -90.7 314.3 -83.8 339.8 -67.6C365.4 -51.4 375.4 -25.7 385.3 0L0 0Z" fill="#b3c9d7"></path><path d="M0 -321.1C16.3 -283.8 32.5 -246.4 44.3 -222.5C56 -198.6 63.2 -188.1 79.4 -191.7C95.7 -195.3 121 -212.9 149.7 -224C178.3 -235 210.4 -239.5 227.1 -227.1C243.8 -214.7 245.1 -185.4 237 -158.3C228.8 -131.2 211.1 -106.2 219.4 -90.9C227.7 -75.5 261.9 -69.9 283.2 -56.3C304.5 -42.8 312.8 -21.4 321.1 0L0 0Z" fill="#a9c2d3"></path><path d="M0 -256.9C13 -227 26 -197.1 35.4 -178C44.8 -158.9 50.5 -150.5 63.5 -153.4C76.5 -156.2 96.8 -170.3 119.7 -179.2C142.7 -188 168.3 -191.6 181.7 -181.7C195 -171.7 196.1 -148.4 189.6 -126.7C183.1 -105 168.9 -85 175.5 -72.7C182.2 -60.4 209.5 -55.9 226.6 -45.1C243.6 -34.2 250.2 -17.1 256.9 0L0 0Z" fill="#9ebccf"></path><path d="M0 -192.7C9.8 -170.3 19.5 -147.9 26.6 -133.5C33.6 -119.2 37.9 -112.9 47.6 -115C57.4 -117.2 72.6 -127.8 89.8 -134.4C107 -141 126.2 -143.7 136.2 -136.2C146.3 -128.8 147.1 -111.3 142.2 -95C137.3 -78.7 126.7 -63.7 131.7 -54.5C136.6 -45.3 157.2 -41.9 169.9 -33.8C182.7 -25.7 187.7 -12.8 192.7 0L0 0Z" fill="#94b6cb"></path><path d="M0 -128.4C6.5 -113.5 13 -98.6 17.7 -89C22.4 -79.4 25.3 -75.2 31.8 -76.7C38.3 -78.1 48.4 -85.2 59.9 -89.6C71.3 -94 84.1 -95.8 90.8 -90.8C97.5 -85.9 98 -74.2 94.8 -63.3C91.5 -52.5 84.5 -42.5 87.8 -36.4C91.1 -30.2 104.8 -27.9 113.3 -22.5C121.8 -17.1 125.1 -8.6 128.4 0L0 0Z" fill="#89afc7"></path><path d="M0 -64.2C3.3 -56.8 6.5 -49.3 8.9 -44.5C11.2 -39.7 12.6 -37.6 15.9 -38.3C19.1 -39.1 24.2 -42.6 29.9 -44.8C35.7 -47 42.1 -47.9 45.4 -45.4C48.8 -42.9 49 -37.1 47.4 -31.7C45.8 -26.2 42.2 -21.2 43.9 -18.2C45.5 -15.1 52.4 -14 56.6 -11.3C60.9 -8.6 62.6 -4.3 64.2 0L0 0Z" fill="#84acc5"></path></g></svg>