<svg id="visual" viewBox="0 0 900 600" width="900" height="600" xmlns="http://www.w3.org/2000/svg" xmlns:xlink="http://www.w3.org/1999/xlink" version="1.1"><rect x="0" y="0" width="900" height="600" fill="#c6d8ff"></rect><path d="M0 252L129 270L257 256L386 239L514 139L643 131L771 151L900 131L900 601L771 601L643 601L514 601L386 601L257 601L129 601L0 601Z" fill="#1c3d87"></path><path d="M0 324L129 217L257 314L386 291L514 198L643 345L771 335L900 361L900 601L771 601L643 601L514 601L386 601L257 601L129 601L0 601Z" fill="#16397d"></path><path d="M0 337L129 316L257 366L386 377L514 363L643 394L771 323L900 372L900 601L771 601L643 601L514 601L386 601L257 601L129 601L0 601Z" fill="#103573"></path><path d="M0 460L129 439L257 397L386 446L514 452L643 412L771 462L900 377L900 601L771 601L643 601L514 601L386 601L257 601L129 601L0 601Z" fill="#0b3169"></path><path d="M0 472L129 494L257 525L386 525L514 517L643 497L771 478L900 450L900 601L771 601L643 601L514 601L386 601L257 601L129 601L0 601Z" fill="#072d60"></path></svg>