<svg id="visual" viewBox="0 0 900 600" width="900" height="600" xmlns="http://www.w3.org/2000/svg" xmlns:xlink="http://www.w3.org/1999/xlink" version="1.1"><rect x="0" y="0" width="900" height="600" fill="#c6d8ff"></rect><path d="M344 0L374 0L374 86L339 86L339 171L306 171L306 257L294 257L294 343L283 343L283 429L288 429L288 514L364 514L364 600L0 600L0 514L0 514L0 429L0 429L0 343L0 343L0 257L0 257L0 171L0 171L0 86L0 86L0 0L0 0Z" fill="#1464ae"></path><path d="M224 0L242 0L242 86L199 86L199 171L186 171L186 257L224 257L224 343L237 343L237 429L211 429L211 514L197 514L197 600L0 600L0 514L0 514L0 429L0 429L0 343L0 343L0 257L0 257L0 171L0 171L0 86L0 86L0 0L0 0Z" fill="#135093"></path><path d="M142 0L139 0L139 86L160 86L160 171L159 171L159 257L136 257L136 343L168 343L168 429L214 429L214 514L139 514L139 600L0 600L0 514L0 514L0 429L0 429L0 343L0 343L0 257L0 257L0 171L0 171L0 86L0 86L0 0L0 0Z" fill="#0e3e79"></path><path d="M69 0L114 0L114 86L61 86L61 171L86 171L86 257L136 257L136 343L76 343L76 429L58 429L58 514L56 514L56 600L0 600L0 514L0 514L0 429L0 429L0 343L0 343L0 257L0 257L0 171L0 171L0 86L0 86L0 0L0 0Z" fill="#072d60"></path></svg>