<svg id="visual" viewBox="0 0 900 600" width="900" height="600" xmlns="http://www.w3.org/2000/svg" xmlns:xlink="http://www.w3.org/1999/xlink" version="1.1"><rect x="0" y="0" width="900" height="600" fill="#fafdff"></rect><path d="M0 127L9.3 121C18.7 115 37.3 103 56.2 97.3C75 91.7 94 92.3 112.8 95.7C131.7 99 150.3 105 169 108.2C187.7 111.3 206.3 111.7 225 101.2C243.7 90.7 262.3 69.3 281.2 59.8C300 50.3 319 52.7 337.8 61.8C356.7 71 375.3 87 394 97.7C412.7 108.3 431.3 113.7 450 107.8C468.7 102 487.3 85 506.2 75.7C525 66.3 544 64.7 562.8 74.8C581.7 85 600.3 107 619 114.7C637.7 122.3 656.3 115.7 675 111.8C693.7 108 712.3 107 731.2 102.7C750 98.3 769 90.7 787.8 87.2C806.7 83.7 825.3 84.3 844 88.3C862.7 92.3 881.3 99.7 890.7 103.3L900 107L900 0L890.7 0C881.3 0 862.7 0 844 0C825.3 0 806.7 0 787.8 0C769 0 750 0 731.2 0C712.3 0 693.7 0 675 0C656.3 0 637.7 0 619 0C600.3 0 581.7 0 562.8 0C544 0 525 0 506.2 0C487.3 0 468.7 0 450 0C431.3 0 412.7 0 394 0C375.3 0 356.7 0 337.8 0C319 0 300 0 281.2 0C262.3 0 243.7 0 225 0C206.3 0 187.7 0 169 0C150.3 0 131.7 0 112.8 0C94 0 75 0 56.2 0C37.3 0 18.7 0 9.3 0L0 0Z" fill="#073170" stroke-linecap="round" stroke-linejoin="miter"></path></svg>